<svg xmlns="http://www.w3.org/2000/svg" fill="none" version="1.1" width="36" height="36" viewBox="0 0 36 36">
    <defs>
        <linearGradient x1="0" y1="0.5" x2="1" y2="0.5" id="master_svg0_6519_04427">
            <stop offset="1.4285714365541935%" stop-color="#FF6149" stop-opacity="1" />
            <stop offset="16.792649030685425%" stop-color="#FF7243" stop-opacity="1" />
            <stop offset="86.1494779586792%" stop-color="#FF553B" stop-opacity="1" />
            <stop offset="100%" stop-color="#FF7381" stop-opacity="1" />
        </linearGradient>
        <filter id="master_svg1_6552_29970/6552_23303" filterUnits="objectBoundingBox"
            color-interpolation-filters="sRGB" x="-0.09792452653249105" y="0" width="1.1958490530649821"
            height="1.7344339927693602">
            <feFlood flood-opacity="0" result="BackgroundImageFix" />
            <feColorMatrix in="SourceAlpha" type="matrix" values="0 0 0 0 0 0 0 0 0 0 0 0 0 0 0 0 0 0 127 0" />
            <feOffset dy="1.4688678979873657" dx="0" />
            <feGaussianBlur stdDeviation="0.36721697449684143" />
            <feColorMatrix type="matrix" values="0 0 0 0 0.5 0 0 0 0 0 0 0 0 0 0 0 0 0 0.10000000149011612 0" />
            <feBlend mode="normal" in2="BackgroundImageFix" result="effect1_dropShadow" />
            <feBlend mode="normal" in="SourceGraphic" in2="effect1_dropShadow" result="shape" />
        </filter>
        <linearGradient x1="0.5" y1="0" x2="0.5" y2="1" id="master_svg2_6552_23305">
            <stop offset="6.428571790456772%" stop-color="#FFFFFF" stop-opacity="1" />
            <stop offset="57.534247636795044%" stop-color="#FFF3B9" stop-opacity="1" />
            <stop offset="100%" stop-color="#FFF7D2" stop-opacity="1" />
        </linearGradient>
        <filter id="master_svg3_6552_29970/6552_23299" filterUnits="objectBoundingBox"
            color-interpolation-filters="sRGB" x="-6.666666401757145" y="-0.10526315789473684" width="14.33333280351429"
            height="1.2105263157894737">
            <feFlood flood-opacity="0" result="BackgroundImageFix" />
            <feBlend mode="normal" in="SourceGraphic" in2="BackgroundImageFix" result="shape" />
            <feGaussianBlur stdDeviation="0.5" result="effect1_foregroundBlur" />
        </filter>
        <filter id="master_svg4_6552_29970/6552_23318" filterUnits="objectBoundingBox"
            color-interpolation-filters="sRGB" x="-6.666666401757145" y="-0.10526315789473684" width="14.33333280351429"
            height="1.2105263157894737">
            <feFlood flood-opacity="0" result="BackgroundImageFix" />
            <feBlend mode="normal" in="SourceGraphic" in2="BackgroundImageFix" result="shape" />
            <feGaussianBlur stdDeviation="0.5" result="effect1_foregroundBlur" />
        </filter>
        <filter id="master_svg5_6552_29970/6552_23298" filterUnits="objectBoundingBox"
            color-interpolation-filters="sRGB" x="-0.0697981076325005" y="0" width="1.139596215265001"
            height="1.604917287826538">
            <feFlood flood-opacity="0" result="BackgroundImageFix" />
            <feColorMatrix in="SourceAlpha" type="matrix" values="0 0 0 0 0 0 0 0 0 0 0 0 0 0 0 0 0 0 127 0" />
            <feOffset dy="1.8147518634796143" dx="0" />
            <feGaussianBlur stdDeviation="0.45368796586990356" />
            <feColorMatrix type="matrix" values="0 0 0 0 0.5 0 0 0 0 0 0 0 0 0 0 0 0 0 0.10000000149011612 0" />
            <feBlend mode="normal" in2="BackgroundImageFix" result="effect1_dropShadow" />
            <feBlend mode="normal" in="SourceGraphic" in2="effect1_dropShadow" result="shape" />
        </filter>
        <linearGradient x1="0.5" y1="0" x2="0.5" y2="1" id="master_svg6_6519_04447">
            <stop offset="6.428571790456772%" stop-color="#FFCEB1" stop-opacity="1" />
            <stop offset="57.85714387893677%" stop-color="#F2DD74" stop-opacity="1" />
            <stop offset="100%" stop-color="#FFF7D2" stop-opacity="1" />
        </linearGradient>
        <filter id="master_svg7_6552_29970/6552_23300" filterUnits="objectBoundingBox"
            color-interpolation-filters="sRGB" x="-0.11599975282495673" y="-1.275997281074524"
            width="1.2319995056499133" height="3.551994562149048">
            <feFlood flood-opacity="0" result="BackgroundImageFix" />
            <feBlend mode="normal" in="SourceGraphic" in2="BackgroundImageFix" result="shape" />
            <feGaussianBlur stdDeviation="0.637998640537262" result="effect1_foregroundBlur" />
        </filter>
        <linearGradient x1="0.4108622074127197" y1="-0.7434080839157104" x2="1.1549234340575358"
            y2="-0.7055181283032788" id="master_svg8_6347_05143">
            <stop offset="0%" stop-color="#FFBFAD" stop-opacity="1" />
            <stop offset="100%" stop-color="#FFBFAD" stop-opacity="0" />
        </linearGradient>
        <linearGradient x1="0.5" y1="0" x2="0.5" y2="1" id="master_svg9_6347_05132">
            <stop offset="2.857142873108387%" stop-color="#FFE785" stop-opacity="1" />
            <stop offset="99.28571581840515%" stop-color="#FFE878" stop-opacity="1" />
        </linearGradient>
        <linearGradient x1="0.5" y1="1" x2="0.5" y2="0" id="master_svga_6347_05135">
            <stop offset="0%" stop-color="#FFCC56" stop-opacity="1" />
            <stop offset="77.22564935684204%" stop-color="#FFF5D6" stop-opacity="1" />
            <stop offset="100%" stop-color="#FFF2BC" stop-opacity="1" />
        </linearGradient>
    </defs>
    <g>
        <g style="opacity:0.05999999865889549;">
            <rect x="0" y="0" width="36" height="36" rx="4" fill="#000000" fill-opacity="0.800000011920929" />
        </g>
        <g>
            <g>
                <rect x="5" y="2" width="26" height="32" rx="4" fill="url(#master_svg0_6519_04427)" fill-opacity="1" />
            </g>
            <g filter="url(#master_svg1_6552_29970/6552_23303)">
                <path
                    d="M11.89737,20L10.89113,19.28642L11.98763,18.22259L10.5,17.96072L10.881101,16.792144L12.25507,17.466450000000002L12.04112,16L13.27134,16L13.05739,17.47627L14.421330000000001,16.801964L14.802430000000001,17.97054L13.30477,18.23241L14.39124,19.276600000000002L13.385,20L12.63617,18.6743L11.89737,20ZM17.24616,20L16.239919999999998,19.28642L17.33642,18.22259L15.84878,17.96072L16.22989,16.792144L17.60386,17.466450000000002L17.3899,16L18.62012,16L18.40617,17.47627L19.770110000000003,16.801964L20.15121,17.97054L18.65355,18.23241L19.74003,19.276600000000002L18.73379,20L17.98496,18.6743L17.24616,20ZM22.594900000000003,20L21.5887,19.28642L22.685200000000002,18.22259L21.1976,17.96072L21.578699999999998,16.792144L22.9526,17.466450000000002L22.7387,16L23.968899999999998,16L23.755000000000003,17.47627L25.1189,16.801964L25.5,17.97054L24.002299999999998,18.23241L25.0888,19.276600000000002L24.0826,20L23.3337,18.6743L22.594900000000003,20Z"
                    fill="url(#master_svg2_6552_23305)" fill-opacity="1" />
            </g>
            <g>
                <ellipse cx="18" cy="11" rx="4" ry="4" fill="#E04023" fill-opacity="0.6000000238418579" />
            </g>
            <g>
                <path
                    d="M5,8L5,9.19998Q9.430620000000001,10.68873,15.504,10.94617Q9.94774,10.47922,5,8ZM20.717399999999998,10.94628Q26.7594,10.68905,31,9.19998L31,8Q26.2391,10.47951,20.717399999999998,10.94628ZM15.504,10.94617Q16.793300000000002,11.05453,18.1154,11.05453Q19.4369,11.05453,20.717399999999998,10.94628Q19.4557,11,18.1154,11Q16.7738,11,15.504,10.94617Z"
                    fill="#E04023" fill-opacity="0.6000000238418579" />
            </g>
            <g filter="url(#master_svg3_6552_29970/6552_23299)">
                <ellipse cx="29.650000005960464" cy="15.5" rx="0.15000000596046448" ry="9.5" fill="#FFFFFF"
                    fill-opacity="1" />
            </g>
            <g filter="url(#master_svg4_6552_29970/6552_23318)">
                <ellipse cx="6.1500000059604645" cy="15.5" rx="0.15000000596046448" ry="9.5" fill="#FFFFFF"
                    fill-opacity="1" />
            </g>
            <g filter="url(#master_svg5_6552_29970/6552_23298)">
                <path
                    d="M5.00480638,5L5.00482178,8Q9.004819999999999,11,18.0048,11Q27.0048,11,31.0048,8L31.0048,5Q30.3798,7,27.0048,8.5Q22.6298,10,18.0048,10Q13.37983,10,9.004819999999999,8.5Q5.879822,7,5.00480638,5Z"
                    fill="url(#master_svg6_6519_04447)" fill-opacity="1" />
            </g>
            <g filter="url(#master_svg7_6552_29970/6552_23300)">
                <path
                    d="M7,3.666667L7,5Q12.5,4.33333,18,4.33333Q23.5,4.33333,29,5L29,3.666667Q23.5,3,18,3Q12.5,3,7,3.666667Z"
                    fill="url(#master_svg8_6347_05143)" fill-opacity="1" />
            </g>
            <g>
                <g>
                    <g>
                        <ellipse cx="18" cy="10.5" rx="4" ry="4" fill="url(#master_svg9_6347_05132)" fill-opacity="1" />
                    </g>
                    <g>
                        <ellipse cx="17.999778032302856" cy="10.500266313552856" rx="3.2727272510528564"
                            ry="3.2727272510528564" fill="url(#master_svga_6347_05135)" fill-opacity="1" />
                        <path
                            d="M21.27250078125,10.5002690625Q21.27250078125,10.6610490625,21.25675078125,10.8210490625Q21.240990781249998,10.9810490625,21.20962078125,11.138739062500001Q21.17825078125,11.2964290625,21.13158078125,11.4502890625Q21.08491078125,11.6041490625,21.02338078125,11.7526890625Q20.96186078125,11.9012290625,20.886070781249998,12.0430190625Q20.81027078125,12.184809062500001,20.72095078125,12.318499062499999Q20.63163078125,12.4521790625,20.52963078125,12.5764590625Q20.427630781250002,12.7007490625,20.31394078125,12.8144290625Q20.20026078125,12.9281190625,20.07597078125,13.030119062499999Q19.95169078125,13.1321190625,19.81801078125,13.2214390625Q19.68432078125,13.3107590625,19.54253078125,13.3865490625Q19.40074078125,13.4623390625,19.25220078125,13.523869062500001Q19.10366078125,13.585399062499999,18.949800781249998,13.632069062500001Q18.79594078125,13.6787390625,18.63825078125,13.710109062499999Q18.48057078125,13.7414790625,18.320560781250002,13.7572390625Q18.16056078125,13.772989062499999,17.99978078125,13.772989062499999Q17.83900078125,13.772989062499999,17.67899078125,13.7572390625Q17.51899078125,13.7414790625,17.36130078125,13.710109062499999Q17.20361078125,13.6787390625,17.04975078125,13.632069062500001Q16.89590078125,13.585399062499999,16.74736078125,13.523869062500001Q16.59882078125,13.4623490625,16.45702078125,13.3865590625Q16.31523078125,13.3107590625,16.18155078125,13.2214390625Q16.04786078125,13.1321190625,15.92358078125,13.030119062499999Q15.79930078125,12.9281190625,15.68561078125,12.8144290625Q15.57192278125,12.7007490625,15.46992578125,12.5764590625Q15.36792878125,12.4521790625,15.27860478125,12.318499062499999Q15.18928078125,12.184809062500001,15.11349078125,12.0430190625Q15.03769978125,11.9012290625,14.97617278125,11.7526890625Q14.91464478125,11.6041490625,14.86797378125,11.4502890625Q14.82130168125,11.2964290625,14.78993528125,11.138739062500001Q14.75856898125,10.9810590625,14.74280988125,10.8210490625Q14.72705078125,10.6610490625,14.72705078125,10.5002690625Q14.72705078125,10.3394890625,14.74280988125,10.1794790625Q14.75856898125,10.0194790625,14.78993528125,9.8617890625Q14.82130168125,9.7040990625,14.86797378125,9.550239062500001Q14.91464478125,9.396389062499999,14.97617278125,9.2478490625Q15.03769978125,9.0993090625,15.11349078125,8.9575090625Q15.18928078125,8.8157190625,15.27860478125,8.6820390625Q15.36792878125,8.5483490625,15.46992578125,8.4240690625Q15.57192278125,8.2997890625,15.68561078125,8.1860990625Q15.79930078125,8.0724110625,15.92358078125,7.9704140625Q16.04786078125,7.8684170625,16.18155078125,7.7790930625Q16.31523078125,7.6897690625,16.45702078125,7.6139790625Q16.59882078125,7.5381880625,16.74736078125,7.4766610625Q16.89590078125,7.4151330625,17.04975078125,7.3684620625Q17.20361078125,7.3217899625,17.36130078125,7.2904235625Q17.51899078125,7.2590572625,17.67899078125,7.2432981625Q17.83900078125,7.2275390625,17.99978078125,7.2275390625Q18.16056078125,7.2275390625,18.320560781250002,7.2432981625Q18.48056078125,7.2590572625,18.63825078125,7.2904235625Q18.79594078125,7.3217899625,18.949800781249998,7.3684620625Q19.10366078125,7.4151330625,19.25220078125,7.4766610625Q19.40074078125,7.5381880625,19.54253078125,7.6139790625Q19.68432078125,7.6897690625,19.81801078125,7.7790930625Q19.95169078125,7.8684170625,20.07597078125,7.9704140625Q20.20026078125,8.0724110625,20.31394078125,8.1860990625Q20.427630781250002,8.2997890625,20.52963078125,8.4240690625Q20.63163078125,8.5483490625,20.72095078125,8.6820390625Q20.81027078125,8.8157190625,20.886060781250002,8.9575090625Q20.96185078125,9.0993090625,21.02338078125,9.2478490625Q21.08491078125,9.396389062499999,21.13158078125,9.550239062500001Q21.17825078125,9.7040990625,21.20962078125,9.8617890625Q21.240990781249998,10.0194790625,21.25675078125,10.1794790625Q21.27250078125,10.3394890625,21.27250078125,10.5002690625ZM20.908870781250002,10.5002690625Q20.908870781250002,10.357349062499999,20.89486078125,10.2151290625Q20.88085078125,10.0728990625,20.85297078125,9.9327290625Q20.82509078125,9.7925590625,20.78360078125,9.6557990625Q20.74212078125,9.5190390625,20.68743078125,9.387009062499999Q20.63274078125,9.254969062499999,20.56537078125,9.1289290625Q20.49800078125,9.0028890625,20.41860078125,8.8840590625Q20.33920078125,8.7652290625,20.24853078125,8.6547590625Q20.15787078125,8.5442890625,20.05681078125,8.4432290625Q19.95576078125,8.3421690625,19.84528078125,8.2515090625Q19.73481078125,8.1608450625,19.615980781250002,8.0814460625Q19.49715078125,8.0020470625,19.37111078125,7.9346770625000005Q19.24507078125,7.8673080625,19.11304078125,7.8126170625Q18.98100078125,7.7579260625,18.84424078125,7.7164400625Q18.70748078125,7.6749540625,18.56731078125,7.6470730625Q18.42714078125,7.6191920625,18.28492078125,7.6051830625Q18.14269078125,7.5911750625,17.99978078125,7.5911750625Q17.85686078125,7.5911750625,17.71464078125,7.6051830625Q17.57241078125,7.6191920625,17.43224078125,7.6470730625Q17.29207078125,7.6749540625,17.15531078125,7.7164400625Q17.01855078125,7.7579260625,16.88652078125,7.8126170625Q16.75448078125,7.8673080625,16.62844078125,7.9346770625000005Q16.50240078125,8.0020460625,16.38357078125,8.0814450625Q16.26474078125,8.1608450625,16.15427078125,8.2515090625Q16.04380078125,8.3421690625,15.94274078125,8.4432290625Q15.84168078125,8.5442890625,15.75102078125,8.6547590625Q15.66035678125,8.7652290625,15.58095678125,8.8840590625Q15.50155878125,9.0028890625,15.43418878125,9.1289290625Q15.36681978125,9.254969062499999,15.31212878125,9.387009062499999Q15.25743778125,9.5190390625,15.21595178125,9.6557990625Q15.17446578125,9.7925590625,15.14658478125,9.9327290625Q15.11870278125,10.0728990625,15.10469478125,10.2151290625Q15.09068678125,10.357349062499999,15.09068678125,10.5002690625Q15.09068678125,10.6431790625,15.10469478125,10.7854090625Q15.11870278125,10.9276290625,15.14658478125,11.0677990625Q15.17446578125,11.2079690625,15.21595178125,11.3447290625Q15.25743778125,11.4814890625,15.31212878125,11.6135290625Q15.36681978125,11.7455590625,15.43418878125,11.8715990625Q15.50155778125,11.9976390625,15.58095678125,12.1164690625Q15.66035678125,12.235299062500001,15.75102078125,12.3457790625Q15.84168078125,12.4562490625,15.94274078125,12.5572990625Q16.04380078125,12.6583590625,16.15427078125,12.7490190625Q16.26474078125,12.8396890625,16.38357078125,12.9190890625Q16.50240078125,12.9984890625,16.62844078125,13.0658590625Q16.75448078125,13.1332290625,16.88652078125,13.1879190625Q17.01855078125,13.2426090625,17.15531078125,13.2840890625Q17.29207078125,13.325579062500001,17.43224078125,13.3534590625Q17.57241078125,13.3813390625,17.71464078125,13.3953490625Q17.85686078125,13.4093590625,17.99978078125,13.4093590625Q18.14269078125,13.4093590625,18.28492078125,13.3953490625Q18.42714078125,13.3813390625,18.56731078125,13.3534590625Q18.70748078125,13.325579062500001,18.84424078125,13.2840890625Q18.98100078125,13.2426090625,19.11304078125,13.1879190625Q19.24507078125,13.1332290625,19.37111078125,13.0658590625Q19.49715078125,12.9984890625,19.615980781250002,12.9190890625Q19.73481078125,12.8396890625,19.84529078125,12.7490190625Q19.95576078125,12.6583590625,20.05681078125,12.5572990625Q20.15787078125,12.4562490625,20.24853078125,12.3457690625Q20.33920078125,12.235299062500001,20.41860078125,12.1164690625Q20.49800078125,11.9976390625,20.56537078125,11.8715990625Q20.63274078125,11.7455590625,20.68743078125,11.6135290625Q20.74212078125,11.4814890625,20.78360078125,11.3447290625Q20.82509078125,11.2079690625,20.85297078125,11.0677990625Q20.88085078125,10.9276290625,20.89486078125,10.7854090625Q20.908870781250002,10.6431790625,20.908870781250002,10.5002690625Z"
                            fill="#E44224" fill-opacity="0.30000001192092896" />
                    </g>
                    <g>
                        <path
                            d="M18.357390995788574,10.67367824684143Q18.426950995788573,10.64377824684143,18.491440995788572,10.604098246841431Q18.555920995788576,10.56442824684143,18.613970995788574,10.51581824684143Q18.672010995788575,10.46720824684143,18.722390995788572,10.410688246841431Q18.772770995788573,10.35416824684143,18.814420995788574,10.290948246841431Q18.856070995788574,10.22771824684143,18.888100995788573,10.15911824684143Q18.920130995788575,10.09050824684143,18.941870995788573,10.01798824684143Q18.963600995788575,9.94546824684143,18.974590995788574,9.87055824684143Q18.985570995788574,9.79564824684143,18.985570995788574,9.71993824684143Q18.985570995788574,9.66893924684143,18.980580995788575,9.618185246841431Q18.975580995788576,9.56743124684143,18.965630995788572,9.51741124684143Q18.955680995788576,9.467392246841431,18.940870995788575,9.41858824684143Q18.926070995788574,9.36978424684143,18.906550995788574,9.32266724684143Q18.887030995788574,9.27554924684143,18.862990995788575,9.230572246841431Q18.838940995788576,9.18559424684143,18.810610995788576,9.143190246841431Q18.782270995788576,9.100785246841431,18.749920995788575,9.06136224684143Q18.717560995788574,9.02193924684143,18.681500995788575,8.98587624684143Q18.645430995788573,8.94981424684143,18.606010995788573,8.917460246841431Q18.566580995788573,8.88510724684143,18.524180995788573,8.856773246841431Q18.481770995788573,8.82843924684143,18.436790995788574,8.80439824684143Q18.391810995788575,8.78035714684143,18.344690995788575,8.760840446841431Q18.297570995788575,8.74132374684143,18.248760995788572,8.72651934684143Q18.199950995788573,8.71171494684143,18.149930995788573,8.701765446841431Q18.099910995788573,8.691815916841431,18.049150995788573,8.68681707684143Q17.998400995788575,8.68181824684143,17.947390995788574,8.68181824684143Q17.896391995788573,8.68181824684143,17.845634995788576,8.68681707684143Q17.794877995788575,8.691815916841431,17.744854995788575,8.701765446841431Q17.694832995788573,8.71171494684143,17.646025995788573,8.72651934684143Q17.597219995788574,8.74132374684143,17.550098995788574,8.760840446841431Q17.502978995788574,8.78035714684143,17.457998995788575,8.80439824684143Q17.413018995788573,8.82843924684143,17.370611995788575,8.856773246841431Q17.328204995788575,8.88510724684143,17.288778995788576,8.917460246841431Q17.249353995788574,8.94981424684143,17.213288995788574,8.98587624684143Q17.177224995788574,9.02193924684143,17.144868995788574,9.06136224684143Q17.112513995788575,9.100785246841431,17.084177995788576,9.143190246841431Q17.055842995788574,9.18559424684143,17.031799995788575,9.230572246841431Q17.007757695788573,9.27554924684143,16.988239895788574,9.32266724684143Q16.968722095788575,9.36978424684143,16.953916795788576,9.41858824684143Q16.939111495788573,9.467392246841431,16.929161395788576,9.51741124684143Q16.919211295788575,9.56743124684143,16.914212195788576,9.618185246841431Q16.909213065788574,9.66893924684143,16.909213065788574,9.71993824684143Q16.909213065788574,9.79564824684143,16.920197895788576,9.87055824684143Q16.931182695788575,9.945458246841431,16.952919895788575,10.01798824684143Q16.974657095788576,10.09050824684143,17.006686695788574,10.15910824684143Q17.038715995788575,10.22770824684143,17.080359995788573,10.29092824684143Q17.122003995788575,10.35415824684143,17.172381995788573,10.410678246841432Q17.222758995788574,10.46719824684143,17.280803995788574,10.51580824684143Q17.338848995788574,10.56441824684143,17.403331995788573,10.60408824684143Q17.467815995788573,10.64376824684143,17.537373995788574,10.67366824684143L17.002683695788573,12.073408246841431C16.957584695788576,12.191468246841431,17.044766995788574,12.31809824684143,17.171150995788576,12.31809824684143L18.723630995788575,12.31809824684143C18.850020995788576,12.31809824684143,18.937200995788572,12.191468246841431,18.892100995788574,12.073408246841431L18.357390995788574,10.67367824684143Z"
                            fill-rule="evenodd" fill="#D6391F" fill-opacity="1" />
                    </g>
                </g>
            </g>
        </g>
    </g>
</svg>