<svg xmlns="http://www.w3.org/2000/svg" fill="none" version="1.1" width="36" height="36" viewBox="0 0 36 36">
    <g>
        <g>
            <path
                d="M22.339935,22.579468C21.044923,21.831803999999998,20.489915,21.45798,19.749907999999998,21.644897C18.6398973,21.644897,18.269895599999998,22.205645,17.714889499999998,22.953308C17.529888200000002,22.953308,16.7898846,22.766419,15.494873,21.458008C14.569864299999999,20.336512,14.199866799999999,19.588858000000002,14.56987,19.215027C14.7548718,19.028111000000003,15.494873,18.467354800000003,15.494873,17.5327759C15.494873,16.7851124,15.309879800000001,15.850525900000001,14.384872399999999,14.5421143C13.829866899999999,13.607534900000001,13.274862299999999,13.046752900000001,12.3498535,13.046752900000001C11.6098471,13.046752900000001,11.240006900000001,12.9392519,10.4999999,13.5C9.38999018,14.4345798,9.019821607,14.915889700000001,9.019821607,15.663553199999999C8.83481999,18.0934601,9.9448297,20.897198,12.3498511,23.700935C14.0148654,25.570095,16.049884300000002,26.878506,18.084902800000002,27.626169C19.009909999999998,28,19.749917,28,20.674926,28C21.599933999999998,28,22.524943,27.813084,23.079947,27.252337C24.004953999999998,26.691587,24,25.5,24,25C24,24,23.264941999999998,23.140216000000002,22.339935,22.579468ZM25.704987,9.74768066L24.409973,10.4953003C24.409973,9.7476368,23.669969000000002,9,22.929962,9L18.4899292,9C17.5649214,9.18691587,17.0099182,9.7476716,17.0099182,10.682251L17.0099182,12.1682129C17.0099182,13.1027927,17.7499228,13.6635742,18.4899292,13.6635742L22.929962,13.6635742C23.669968,13.6635742,24.409973,12.9158764,24.409973,12.1682129L25.704987,12.9158936C26.259991,13.2897253,27,12.9158764,27,12.1682129L27,10.4953003C27,9.7476368,26.259991,9.37384892,25.704987,9.74768066Z"
                fill="#FFFFFF" fill-opacity="0.800000011920929" />
        </g>
    </g>
</svg>