<svg xmlns="http://www.w3.org/2000/svg" fill="none" version="1.1" width="36" height="36" viewBox="0 0 36 36">
    <defs>
        <filter id="master_svg0_6535_049155/6535_001311" filterUnits="objectBoundingBox"
            color-interpolation-filters="sRGB" x="-0.15384615384615385" y="-0.2631578947368421"
            width="1.3076923076923077" height="1.4210526315789473">
            <feFlood flood-opacity="0" result="BackgroundImageFix" />
            <feColorMatrix in="SourceAlpha" type="matrix" values="0 0 0 0 0 0 0 0 0 0 0 0 0 0 0 0 0 0 127 0" />
            <feOffset dy="-1" dx="0" />
            <feGaussianBlur stdDeviation="1" />
            <feColorMatrix type="matrix"
                values="0 0 0 0 0.30588236451148987 0 0 0 0 0.40784314274787903 0 0 0 0 0.8784313797950745 0 0 0 0.20000000298023224 0" />
            <feBlend mode="normal" in2="BackgroundImageFix" result="effect1_dropShadow" />
            <feBlend mode="normal" in="SourceGraphic" in2="effect1_dropShadow" result="shape" />
        </filter>
        <linearGradient x1="0" y1="0.619873046875" x2="1.0000076765034447" y2="0.6169069502628304"
            id="master_svg1_5995_006237">
            <stop offset="0%" stop-color="#ADDBFB" stop-opacity="1" />
            <stop offset="6.992520391941071%" stop-color="#CAE6FF" stop-opacity="1" />
            <stop offset="16.523434221744537%" stop-color="#9DCAFA" stop-opacity="1" />
            <stop offset="48.94253611564636%" stop-color="#8FADF9" stop-opacity="1" />
            <stop offset="82.14285969734192%" stop-color="#95A7F8" stop-opacity="1" />
            <stop offset="90.25187492370605%" stop-color="#B6BDFA" stop-opacity="1" />
            <stop offset="100%" stop-color="#A5AAF9" stop-opacity="1" />
        </linearGradient>
        <filter id="master_svg2_6535_049155/6535_001310" filterUnits="objectBoundingBox"
            color-interpolation-filters="sRGB" x="-0.14285714285714285" y="-0.2631578947368421"
            width="1.2857142857142858" height="1.4210526315789473">
            <feFlood flood-opacity="0" result="BackgroundImageFix" />
            <feColorMatrix in="SourceAlpha" type="matrix" values="0 0 0 0 0 0 0 0 0 0 0 0 0 0 0 0 0 0 127 0" />
            <feOffset dy="-1" dx="0" />
            <feGaussianBlur stdDeviation="1" />
            <feColorMatrix type="matrix"
                values="0 0 0 0 0.30588236451148987 0 0 0 0 0.40784314274787903 0 0 0 0 0.8784313797950745 0 0 0 0.20000000298023224 0" />
            <feBlend mode="normal" in2="BackgroundImageFix" result="effect1_dropShadow" />
            <feBlend mode="normal" in="SourceGraphic" in2="effect1_dropShadow" result="shape" />
        </filter>
        <linearGradient x1="0" y1="0.619873046875" x2="1.0000076640002347" y2="0.6173155452361812"
            id="master_svg3_6017_57003">
            <stop offset="0%" stop-color="#A5AAF9" stop-opacity="1" />
            <stop offset="6.992520391941071%" stop-color="#B6BDFA" stop-opacity="1" />
            <stop offset="16.523434221744537%" stop-color="#95A7F8" stop-opacity="1" />
            <stop offset="48.94253611564636%" stop-color="#8FADF9" stop-opacity="0.7400000095367432" />
            <stop offset="82.14285969734192%" stop-color="#9DCAFA" stop-opacity="0.7400000095367432" />
            <stop offset="90.25187492370605%" stop-color="#CAE6FF" stop-opacity="0.7400000095367432" />
            <stop offset="100%" stop-color="#ADDBFB" stop-opacity="0.7400000095367432" />
        </linearGradient>
    </defs>
    <g>
        <g style="opacity:0.05999999865889549;">
            <rect x="0" y="0" width="36" height="36" rx="4" fill="#000000" fill-opacity="0.800000011920929" />
        </g>
        <g>
            <g>
                <path d="M4,28L32,28L32,10C32,8.895431,31.1046,8,30,8L6,8C4.895431,8,4,8.895431,4,10L4,28Z"
                    fill="#4D67E1" fill-opacity="1" />
            </g>
            <g>
                <path
                    d="M5,6L5,28C5,30.2091,6.79086,32,9,32L27,32C29.2091,32,31,30.2091,31,28L31,6C31,3.79086,29.2091,2,27,2L9,2C6.79086,2,5,3.79086,5,6Z"
                    fill="#FEFBF2" fill-opacity="1" />
            </g>
            <g>
                <g>
                    <rect x="14" y="6" width="10" height="1.5" rx="0" fill="#8FB0F5" fill-opacity="1" />
                </g>
                <g>
                    <rect x="14" y="9" width="7" height="1.5" rx="0" fill="#A1B7F7" fill-opacity="1" />
                </g>
                <g>
                    <rect x="14" y="13" width="10" height="1.5" rx="0" fill="#B1BDF7" fill-opacity="1" />
                </g>
                <g>
                    <ellipse cx="11.75" cy="6.75" rx="0.75" ry="0.75" fill="#8FB0F5" fill-opacity="1" />
                </g>
                <g>
                    <ellipse cx="11.75" cy="9.75" rx="0.75" ry="0.75" fill="#A1B7F7" fill-opacity="1" />
                </g>
                <g>
                    <ellipse cx="11.75" cy="13.75" rx="0.75" ry="0.75" fill="#B1BDF7" fill-opacity="1" />
                </g>
            </g>
            <g>
                <g filter="url(#master_svg0_6535_049155/6535_001311)">
                    <path
                        d="M4,15L4,30C4,32.2091,5.79086,34,8,34L26,34C28.2091,34,30,32.2091,30,30L30,22.766379999999998C30,22.31422,29.6966,21.918309999999998,29.26,21.80076L4,15Z"
                        fill="url(#master_svg1_5995_006237)" fill-opacity="1" />
                </g>
                <g transform="matrix(-1,0,0,1,64,0)" filter="url(#master_svg2_6535_049155/6535_001310)">
                    <path
                        d="M32,15L32,30C32,32.2091,33.79086,34,36,34L56,34C58.2091,34,60,32.2091,60,30L60,22.78078C60,22.32191,59.6877,21.92193,59.2425,21.81063L32,15Z"
                        fill="url(#master_svg3_6017_57003)" fill-opacity="1" />
                </g>
            </g>
        </g>
    </g>
</svg>