<svg xmlns="http://www.w3.org/2000/svg" fill="none" version="1.1" width="30" height="30" viewBox="0 0 30 30">
    <g>
        <g style="opacity:0;">
            <rect x="0" y="0" width="30" height="30" rx="0" fill="#FFFFFF" fill-opacity="1" />
        </g>
        <g>
            <g>
                <path
                    d="M4,23.0909L4,15.5C4,9.14873,9.14873,4,15.5,4C21.8513,4,27,9.14873,27,15.5L27,23.0909C27,24.1453,26.1453,25,25.0909,25L25,25L25,15.5C25,10.25329,20.7467,6,15.5,6C10.25329,6,6,10.25329,6,15.5L6,25L5.90909,25C4.854729,25,4,24.1453,4,23.0909Z"
                    fill-rule="evenodd" fill="#000000" fill-opacity="0.800000011920929" />
            </g>
            <g>
                <path
                    d="M20.5,18.75L18.46353,18.75L17.67082,20.33541C17.48558,20.70589,17.03507,20.85606,16.66459,20.67082C16.509,20.59303,16.38529,20.46357,16.31464,20.3046L14.9007,17.12324L14.14312,18.38587C14.00758,18.61178,13.76345,18.75,13.5,18.75L11,18.75C10.585786,18.75,10.25,18.41421,10.25,18C10.25,17.58579,10.585786,17.25,11,17.25L13.07536,17.25L14.35688,15.114128000000001C14.43624,14.981864999999999,14.55445,14.877286,14.6954,14.8146415C14.87716,14.7338555,15.083580000000001,14.7285855,15.26923,14.799991C15.454889999999999,14.871396,15.604569999999999,15.013628,15.68536,15.195396L17.03991,18.24313L17.32918,17.66459C17.456220000000002,17.4105,17.71592,17.25,18,17.25L20.5,17.25C20.9142,17.25,21.25,17.58579,21.25,18C21.25,18.41421,20.9142,18.75,20.5,18.75Z"
                    fill-rule="evenodd" fill="#000000" fill-opacity="0.800000011920929" />
            </g>
            <g>
                <path d="M6,25C7.10457,25,8,24.104570000000002,8,23L8,18C8,16.89543,7.10457,16,6,16L6,25Z"
                    fill="#000000" fill-opacity="0.800000011920929" />
            </g>
            <g transform="matrix(-1,0,0,1,50,0)">
                <path d="M25,25C26.10457,25,27,24.104570000000002,27,23L27,18C27,16.89543,26.10457,16,25,16L25,25Z"
                    fill="#000000" fill-opacity="0.800000011920929" />
            </g>
        </g>
    </g>
</svg>